<svg xmlns="http://www.w3.org/2000/svg" viewBox="0 0 200 200" width="1024" height="1024">
  <path fill="#000" d="M69.43 105.04c0 1.67 1.3 2.93 3.1 2.93h24.54L84.11 143.1c-1.64 4.48 2.96 6.86 5.91 3.22l39.42-49.29c.71-.96 1.13-1.8 1.13-2.8 0-1.67-1.27-2.93-3.1-2.93h-24.55l12.97-35.14c1.68-4.48-2.98-6.86-5.92-3.22l-39.42 49.29c-.7.96-1.12 1.8-1.12 2.8"/>
  <g fill="#000">
    <circle cx="100" cy="29" r="9" transform="rotate(0 100 100)"/>
    <circle cx="100" cy="29" r="9" transform="rotate(30 100 100)"/>
    <circle cx="100" cy="29" r="9" transform="rotate(60 100 100)"/>
    <circle cx="100" cy="29" r="9" transform="rotate(90 100 100)"/>
    <circle cx="100" cy="29" r="9" transform="rotate(120 100 100)"/>
    <circle cx="100" cy="29" r="9" transform="rotate(150 100 100)"/>
    <circle cx="100" cy="29" r="9" transform="rotate(180 100 100)"/>
    <circle cx="100" cy="29" r="9" transform="rotate(210 100 100)"/>
    <circle cx="100" cy="29" r="9" transform="rotate(240 100 100)"/>
    <circle cx="100" cy="29" r="9" transform="rotate(270 100 100)"/>
    <circle cx="100" cy="29" r="9" transform="rotate(300 100 100)"/>
    <circle cx="100" cy="29" r="9" transform="rotate(330 100 100)"/>
  </g>
</svg>